<svg width="32" height="32" viewBox="0 0 32 32" fill="none" xmlns="http://www.w3.org/2000/svg">
<path d="M10.6687 18.3994C10.5426 18.4001 10.4189 18.3365 10.3121 18.2158C10.2053 18.0951 10.1197 17.9223 10.0653 17.7175C10.0108 17.5128 9.98981 17.2844 10.0046 17.0589C10.0194 16.8335 10.0694 16.6202 10.1489 16.4439L16.7464 4.20707C16.7959 4.10424 16.8633 4.03474 16.9376 4.01C17.012 3.98526 17.0887 4.00674 17.1554 4.07091C17.222 4.13508 17.2746 4.23814 17.3044 4.36316C17.3342 4.48818 17.3395 4.62774 17.3195 4.75893L16.04 11.981C16.0023 12.1628 15.9896 12.3584 16.0031 12.5509C16.0165 12.7434 16.0558 12.9272 16.1173 13.0865C16.1789 13.2457 16.2611 13.3757 16.3567 13.4653C16.4523 13.5548 16.5586 13.6013 16.6664 13.6006H21.3313C21.4574 13.5999 21.5811 13.6635 21.6879 13.7842C21.7947 13.9049 21.8803 14.0777 21.9347 14.2825C21.9892 14.4872 22.0102 14.7156 21.9954 14.9411C21.9806 15.1665 21.9306 15.3798 21.8511 15.5561L15.2536 27.7929C15.2041 27.8958 15.1367 27.9653 15.0624 27.99C14.988 28.0147 14.9113 27.9933 14.8446 27.9291C14.778 27.8649 14.7254 27.7619 14.6956 27.6368C14.6658 27.5118 14.6605 27.3723 14.6805 27.2411L15.96 20.019C15.9977 19.8372 16.0104 19.6416 15.9969 19.4491C15.9835 19.2566 15.9442 19.0728 15.8827 18.9135C15.8211 18.7543 15.7389 18.6243 15.6433 18.5347C15.5477 18.4452 15.4414 18.3987 15.3336 18.3994H10.6687Z" fill="#E7D932" stroke="#E7D932" stroke-width="0.813559" stroke-linecap="round" stroke-linejoin="round"/>
</svg>

