<svg width="1206" height="178" viewBox="0 0 1206 178" fill="none" xmlns="http://www.w3.org/2000/svg">
<path d="M1205.98 107.54C1205.82 119.073 1204.01 129.105 1200.53 137.637C1197.06 146.01 1192.08 152.961 1185.6 158.491C1179.12 164.02 1171.3 168.128 1162.14 170.814C1153.14 173.5 1142.95 174.843 1131.57 174.843C1119.25 175.001 1108.11 173.105 1098.16 169.155C1088.2 165.363 1079.83 159.913 1073.04 152.803L1074.46 168.918H1052.42V3.03186H1074.46V56.1155C1087.26 44.2664 1105.5 38.3419 1129.2 38.3419C1141.21 38.3419 1151.95 39.7638 1161.43 42.6076C1170.91 45.2933 1178.97 49.48 1185.6 55.1675C1192.24 60.8551 1197.29 68.0434 1200.77 76.7327C1204.24 85.422 1205.98 95.6912 1205.98 107.54ZM1074.7 106.829C1075.01 123.892 1080.07 136.057 1089.86 143.324C1099.66 150.592 1113.16 154.225 1130.39 154.225C1147.45 154.225 1160.48 150.671 1169.49 143.561C1178.49 136.294 1183.15 124.05 1183.47 106.829C1183.15 89.4507 1178.73 76.9697 1170.2 69.3864C1161.67 61.803 1148.24 58.0113 1129.91 58.0113C1111.59 58.0113 1097.84 61.803 1088.68 69.3864C1079.67 76.9697 1075.01 89.4507 1074.7 106.829Z" fill="white"/>
<path d="M960.945 133.845C960.787 147.274 956.6 157.464 948.385 164.415C940.328 171.367 928.558 174.843 913.075 174.843H905.018C889.535 174.843 877.528 171.367 868.996 164.415C860.465 157.306 856.042 146.563 855.726 132.186C855.726 118.125 860.07 107.777 868.76 101.142C877.449 94.3483 889.535 90.9516 905.018 90.9516H977.77C976.981 84.0002 975.006 78.3126 971.846 73.889C968.686 69.3074 964.974 65.7527 960.708 63.2249C956.442 60.5391 951.782 58.7223 946.726 57.7744C941.828 56.6684 937.247 56.1155 932.981 56.1155H930.611C926.346 56.1155 921.922 56.4315 917.34 57.0634C912.759 57.6954 908.335 58.8803 904.07 60.6181C899.804 62.198 895.933 64.4098 892.458 67.2536C888.982 70.0973 886.375 73.81 884.637 78.3916H861.413C862.203 72.2301 864.415 66.6216 868.049 61.566C871.84 56.5105 876.738 52.1658 882.741 48.5321C888.903 44.7404 895.933 41.8177 903.833 39.7639C911.89 37.71 920.421 36.6831 929.426 36.6831H931.322C943.645 36.6831 954.151 38.105 962.841 40.9487C971.53 43.7925 978.639 48.1372 984.169 53.9827C989.698 59.8282 993.727 67.2536 996.255 76.2588C998.783 85.2641 1000.13 95.9282 1000.28 108.251V168.918H978.244V109.91L953.835 109.673C958.575 116.15 960.945 124.208 960.945 133.845ZM877.765 132.186C877.923 139.77 880.135 145.536 884.4 149.486C888.666 153.277 895.538 155.173 905.018 155.173H913.075C922.238 155.173 928.952 153.277 933.218 149.486C937.484 145.694 939.775 139.928 940.091 132.186C939.775 124.445 937.563 118.757 933.455 115.124C929.347 111.49 922.554 109.673 913.075 109.673H905.018C895.538 109.673 888.666 111.49 884.4 115.124C880.135 118.757 877.923 124.445 877.765 132.186Z" fill="white"/>
<path d="M815.359 148.064V168.918H674.593V3.03186H697.817V148.064H815.359Z" fill="white"/>
<path d="M619.665 168.444C607.816 168.602 598.574 167.654 591.938 165.6C585.303 163.547 580.326 159.913 577.009 154.699C573.849 149.328 571.874 141.981 571.084 132.66C570.452 123.181 570.136 111.174 570.136 96.6391V62.9879H547.623V43.5555H570.373V15.8288H592.412L588.384 43.5555H629.618V62.9879H592.412L592.175 96.6391C592.175 109.12 592.333 118.836 592.649 125.788C593.123 132.739 594.229 137.874 595.967 141.191C597.863 144.509 600.628 146.484 604.261 147.116C608.053 147.748 613.267 148.064 619.902 148.064L619.665 168.444Z" fill="white"/>
<path d="M370.803 105.881C370.645 117.414 368.671 127.526 364.879 136.215C361.245 144.746 356.032 151.856 349.238 157.543C342.603 163.231 334.624 167.496 325.303 170.34C316.14 173.184 305.95 174.606 294.733 174.606C283.358 174.606 273.089 173.184 263.925 170.34C254.762 167.654 246.863 163.468 240.227 157.78C233.75 152.092 228.694 144.904 225.061 136.215C221.427 127.526 219.531 117.335 219.373 105.644C219.373 93.9533 221.19 83.7632 224.824 75.0739C228.457 66.2266 233.513 58.9592 239.99 53.2717C246.626 47.4262 254.525 43.0816 263.688 40.2378C273.01 37.236 283.279 35.7352 294.496 35.7352C305.871 35.7352 316.219 37.1571 325.54 40.0008C334.861 42.8446 342.84 47.1892 349.475 53.0347C356.269 58.7223 361.482 65.9897 365.116 74.8369C368.908 83.6842 370.803 94.0323 370.803 105.881ZM241.886 105.17C242.202 122.233 246.863 134.793 255.868 142.85C265.031 150.75 277.986 154.699 294.733 154.699C311.479 154.699 324.513 150.75 333.835 142.85C343.156 134.951 347.974 122.391 348.29 105.17C347.974 87.9498 343.077 75.3899 333.598 67.4905C324.118 59.4332 311.005 55.4045 294.259 55.4045C277.512 55.4045 264.636 59.4332 255.631 67.4905C246.784 75.3899 242.202 87.9498 241.886 105.17Z" fill="white"/>
<path d="M186.267 3.03186L112.566 168.918H73.4639L0 3.03186H25.5939L93.3702 155.884L160.91 3.03186H186.267Z" fill="white"/>
<path d="M420.683 106.114C419.779 106.119 418.893 105.663 418.128 104.798C417.362 103.933 416.749 102.695 416.358 101.227C415.968 99.7595 415.818 98.1227 415.924 96.507C416.03 94.8912 416.388 93.3628 416.958 92.0993L464.24 4.4021C464.594 3.66511 465.078 3.16709 465.61 2.98977C466.143 2.81245 466.693 2.96638 467.171 3.42629C467.648 3.8862 468.025 4.62476 468.239 5.52074C468.453 6.41672 468.491 7.41689 468.347 8.35707L459.177 60.1156C458.907 61.4184 458.816 62.8198 458.913 64.1996C459.009 65.5794 459.29 66.8965 459.732 68.0378C460.173 69.1791 460.762 70.1106 461.447 70.7524C462.132 71.3942 462.894 71.7271 463.667 71.7226H497.098C498.002 71.717 498.888 72.1732 499.654 73.0382C500.419 73.9032 501.033 75.1414 501.423 76.6091C501.813 78.0767 501.964 79.7134 501.858 81.3292C501.752 82.945 501.393 84.4734 500.824 85.7369L453.542 173.434C453.187 174.171 452.704 174.669 452.171 174.846C451.638 175.024 451.088 174.87 450.61 174.41C450.133 173.95 449.756 173.211 449.542 172.315C449.329 171.419 449.291 170.419 449.434 169.479L458.604 117.721C458.874 116.418 458.965 115.016 458.869 113.637C458.772 112.257 458.491 110.94 458.05 109.798C457.608 108.657 457.02 107.726 456.334 107.084C455.649 106.442 454.887 106.109 454.115 106.114H420.683Z" fill="#E7D932" stroke="#E7D932" stroke-width="5.83051" stroke-linecap="round" stroke-linejoin="round"/>
</svg>
